<?xml version="1.0" encoding="UTF-8" standalone="no"?>
<!DOCTYPE svg PUBLIC "-//W3C//DTD SVG 1.0//EN" "http://www.w3.org/TR/2001/PR-SVG-20010719/DTD/svg10.dtd">
<svg width="34cm" height="17cm" viewBox="87 228 680 326" xmlns="http://www.w3.org/2000/svg" xmlns:xlink="http://www.w3.org/1999/xlink">
  <g>
    <rect style="fill: #ffffff" x="399.873" y="363.585" width="187.1" height="28"/>
    <rect style="fill: none; fill-opacity:0; stroke-width: 2; stroke: #000000" x="399.873" y="363.585" width="187.1" height="28"/>
    <text font-size="16" style="fill: #000000;text-anchor:middle;font-family:sans-serif;font-style:italic;font-weight:700" x="493.423" y="382.585">Test</text>
    <rect style="fill: #ffffff" x="399.873" y="391.585" width="187.1" height="20"/>
    <rect style="fill: none; fill-opacity:0; stroke-width: 2; stroke: #000000" x="399.873" y="391.585" width="187.1" height="20"/>
    <text font-size="12.8" style="fill: #000000;text-anchor:start;font-family:monospace;font-style:italic;font-weight:700" x="402.873" y="405.585">+run(result:TestResult)</text>
  </g>
  <g>
    <rect style="fill: #ffffff" x="429.985" y="229.984" width="125.5" height="28"/>
    <rect style="fill: none; fill-opacity:0; stroke-width: 2; stroke: #000000" x="429.985" y="229.984" width="125.5" height="28"/>
    <text font-size="16" style="fill: #000000;text-anchor:middle;font-family:sans-serif;font-style:normal;font-weight:700" x="492.735" y="248.984">TestRunner</text>
    <rect style="fill: #ffffff" x="429.985" y="257.984" width="125.5" height="36"/>
    <rect style="fill: none; fill-opacity:0; stroke-width: 2; stroke: #000000" x="429.985" y="257.984" width="125.5" height="36"/>
    <text font-size="12.8" style="fill: #000000;text-anchor:start;font-family:monospace;font-style:normal;font-weight:normal" x="432.985" y="271.984">+run(test:Test)</text>
    <text font-size="12.8" style="fill: #000000;text-anchor:start;font-family:monospace;font-style:normal;font-weight:normal" x="432.985" y="287.984">+main()</text>
  </g>
  <g>
    <rect style="fill: #ffffff" x="88.5112" y="330.424" width="187.1" height="28"/>
    <rect style="fill: none; fill-opacity:0; stroke-width: 2; stroke: #000000" x="88.5112" y="330.424" width="187.1" height="28"/>
    <text font-size="16" style="fill: #000000;text-anchor:middle;font-family:sans-serif;font-style:normal;font-weight:700" x="182.061" y="349.424">TestResult</text>
    <rect style="fill: #ffffff" x="88.5112" y="358.424" width="187.1" height="52"/>
    <rect style="fill: none; fill-opacity:0; stroke-width: 2; stroke: #000000" x="88.5112" y="358.424" width="187.1" height="52"/>
    <text font-size="12.8" style="fill: #000000;text-anchor:start;font-family:monospace;font-style:normal;font-weight:normal" x="91.5112" y="372.424">+error_count: int</text>
    <text font-size="12.8" style="fill: #000000;text-anchor:start;font-family:monospace;font-style:normal;font-weight:normal" x="91.5112" y="388.424">+failure_count: int</text>
    <text font-size="12.8" style="fill: #000000;text-anchor:start;font-family:monospace;font-style:normal;font-weight:normal" x="91.5112" y="404.424">+run_count: int</text>
    <rect style="fill: #ffffff" x="88.5112" y="410.424" width="187.1" height="36"/>
    <rect style="fill: none; fill-opacity:0; stroke-width: 2; stroke: #000000" x="88.5112" y="410.424" width="187.1" height="36"/>
    <text font-size="12.8" style="fill: #000000;text-anchor:start;font-family:monospace;font-style:normal;font-weight:normal" x="91.5112" y="424.424">+add_error(test:Test)</text>
    <text font-size="12.8" style="fill: #000000;text-anchor:start;font-family:monospace;font-style:normal;font-weight:normal" x="91.5112" y="440.424">+add_failure(test:Test)</text>
  </g>
  <g>
    <rect style="fill: #ffffff" x="654.68" y="344.435" width="111.4" height="28"/>
    <rect style="fill: none; fill-opacity:0; stroke-width: 2; stroke: #000000" x="654.68" y="344.435" width="111.4" height="28"/>
    <text font-size="16" style="fill: #000000;text-anchor:middle;font-family:sans-serif;font-style:italic;font-weight:700" x="710.38" y="363.435">TestFixture</text>
    <rect style="fill: #ffffff" x="654.68" y="372.435" width="111.4" height="36"/>
    <rect style="fill: none; fill-opacity:0; stroke-width: 2; stroke: #000000" x="654.68" y="372.435" width="111.4" height="36"/>
    <text font-size="12.8" style="fill: #000000;text-anchor:start;font-family:monospace;font-style:italic;font-weight:700" x="657.68" y="386.435">+set_up()</text>
    <text font-size="12.8" style="fill: #000000;text-anchor:start;font-family:monospace;font-style:italic;font-weight:700" x="657.68" y="402.435">+tear_down()</text>
  </g>
  <g>
    <rect style="fill: #ffffff" x="294.518" y="499.791" width="164" height="28"/>
    <rect style="fill: none; fill-opacity:0; stroke-width: 2; stroke: #000000" x="294.518" y="499.791" width="164" height="28"/>
    <text font-size="16" style="fill: #000000;text-anchor:middle;font-family:sans-serif;font-style:italic;font-weight:700" x="376.518" y="518.791">TestSuite</text>
    <rect style="fill: #ffffff" x="294.518" y="527.791" width="164" height="20"/>
    <rect style="fill: none; fill-opacity:0; stroke-width: 2; stroke: #000000" x="294.518" y="527.791" width="164" height="20"/>
    <text font-size="12.8" style="fill: #000000;text-anchor:start;font-family:monospace;font-style:italic;font-weight:700" x="297.518" y="541.791">+add_test(test:Test)</text>
  </g>
  <g>
    <rect style="fill: #ffffff" x="580.151" y="505.856" width="94.7" height="28"/>
    <rect style="fill: none; fill-opacity:0; stroke-width: 2; stroke: #000000" x="580.151" y="505.856" width="94.7" height="28"/>
    <text font-size="16" style="fill: #000000;text-anchor:middle;font-family:sans-serif;font-style:italic;font-weight:700" x="627.501" y="524.856">TestCase</text>
    <rect style="fill: #ffffff" x="580.151" y="533.856" width="94.7" height="20"/>
    <rect style="fill: none; fill-opacity:0; stroke-width: 2; stroke: #000000" x="580.151" y="533.856" width="94.7" height="20"/>
    <text font-size="12.8" style="fill: #000000;text-anchor:start;font-family:monospace;font-style:italic;font-weight:700" x="583.151" y="547.856">+run_test()</text>
  </g>
  <g>
    <line style="fill: none; fill-opacity:0; stroke-width: 2; stroke: #000000" x1="276.473" y1="388.17" x2="399.011" y2="387.839"/>
    <path style="fill: #000000" d="M 399.011 387.839 C 399.014,388.839 398.017,389.842 397.017,389.845 C 396.017,389.848 395.014,388.85 395.011,387.85 C 395.009,386.85 396.006,385.848 397.006,385.845 C 398.006,385.842 399.009,386.839 399.011,387.839z"/>
    <path style="fill: none; fill-opacity:0; stroke-width: 2; stroke: #000000" d="M 399.011 387.839 C 399.014,388.839 398.017,389.842 397.017,389.845 C 396.017,389.848 395.014,388.85 395.011,387.85 C 395.009,386.85 396.006,385.848 397.006,385.845 C 398.006,385.842 399.009,386.839 399.011,387.839"/>
  </g>
  <text font-size="12.8" style="fill: #000000;text-anchor:middle;font-family:sans-serif;font-style:normal;font-weight:normal" x="337.742" y="384.955">
    <tspan x="337.742" y="384.955">collects results</tspan>
  </text>
  <text font-size="12.8" style="fill: #000000;text-anchor:end;font-family:sans-serif;font-style:normal;font-weight:normal" x="493.101" y="333.211">
    <tspan x="493.101" y="333.211">runs </tspan>
  </text>
  <g>
    <line style="fill: none; fill-opacity:0; stroke-width: 2; stroke: #000000" x1="492.916" y1="294.987" x2="493.286" y2="362.586"/>
    <path style="fill: #000000" d="M 493.286 362.586 C 492.286,362.592 491.281,361.597 491.275,360.597 C 491.27,359.597 492.264,358.592 493.264,358.586 C 494.264,358.581 495.27,359.575 495.275,360.575 C 495.281,361.575 494.286,362.581 493.286,362.586z"/>
    <path style="fill: none; fill-opacity:0; stroke-width: 2; stroke: #000000" d="M 493.286 362.586 C 492.286,362.592 491.281,361.597 491.275,360.597 C 491.27,359.597 492.264,358.592 493.264,358.586 C 494.264,358.581 495.27,359.575 495.275,360.575 C 495.281,361.575 494.286,362.581 493.286,362.586"/>
  </g>
  <text font-size="12.8" style="fill: #000000;text-anchor:start;font-family:sans-serif;font-style:normal;font-weight:normal" x="541" y="321">
    <tspan x="541" y="321"></tspan>
  </text>
  <g>
    <line style="fill: none; fill-opacity:0; stroke-width: 2; stroke: #000000" x1="397.753" y1="499.05" x2="468.932" y2="416.12"/>
    <polygon style="fill: #000000" points="470.45,417.422 471.537,413.084 467.414,414.817 "/>
    <polygon style="fill: none; fill-opacity:0; stroke-width: 2; stroke: #000000" points="470.45,417.422 471.537,413.084 467.414,414.817 "/>
  </g>
  <text font-size="12.8" style="fill: #000000;text-anchor:end;font-family:sans-serif;font-style:normal;font-weight:normal" x="434.971" y="452.638">
    <tspan x="434.971" y="452.638">inherits from</tspan>
  </text>
  <g>
    <line style="fill: none; fill-opacity:0; stroke-width: 2; stroke: #000000" x1="604.195" y1="505.125" x2="520.159" y2="415.954"/>
    <polygon style="fill: #000000" points="521.614,414.583 517.416,413.043 518.703,417.326 "/>
    <polygon style="fill: none; fill-opacity:0; stroke-width: 2; stroke: #000000" points="521.614,414.583 517.416,413.043 518.703,417.326 "/>
  </g>
  <text font-size="12.8" style="fill: #000000;text-anchor:start;font-family:sans-serif;font-style:normal;font-weight:normal" x="560.462" y="455.67">
    <tspan x="560.462" y="455.67">inherits from</tspan>
  </text>
  <g>
    <line style="fill: none; fill-opacity:0; stroke-width: 2; stroke: #000000" x1="641.003" y1="504.863" x2="690.173" y2="413.842"/>
    <polygon style="fill: #000000" points="691.932,414.793 692.074,410.323 688.413,412.892 "/>
    <polygon style="fill: none; fill-opacity:0; stroke-width: 2; stroke: #000000" points="691.932,414.793 692.074,410.323 688.413,412.892 "/>
  </g>
  <text font-size="12.8" style="fill: #000000;text-anchor:start;font-family:sans-serif;font-style:normal;font-weight:normal" x="482" y="321">
    <tspan x="482" y="321"></tspan>
  </text>
</svg>
